<svg width="113" height="120" viewBox="0 0 113 120" fill="none" xmlns="http://www.w3.org/2000/svg">
<path fill-rule="evenodd" clip-rule="evenodd" d="M56.25 120L11.2702 97.4658L0 0H112.5L101.228 97.4658L56.25 120Z" fill="#29A5D1"/>
<path d="M37.9618 67.4815L39.2366 78.0052L56.2508 86.614L73.3693 78.0052L75.3915 60.0408H22.0119L20.6288 48.2447L56.2508 29.9634H18.5023L16.8008 14.9758H95.7008L94.3198 27.3049L59.7603 44.9489H92.1915L87.301 87.7819L56.2508 103.3L25.2008 87.7819L22.8617 67.4815H37.9618Z" fill="white"/>
<path fill-rule="evenodd" clip-rule="evenodd" d="M59.7595 44.9489L94.3191 27.3049L95.7 14.9758H56.25V29.9634V60.0408H75.3907L73.3685 78.0052L56.25 86.614V103.3L87.3002 87.7819L92.1907 44.9489H59.7595Z" fill="#D8D9D9"/>
</svg>
