<svg width="120" height="120" viewBox="0 0 120 120" fill="none" xmlns="http://www.w3.org/2000/svg">
<path d="M7.03125 0L14.4846 105.024L60.0467 120L105.609 105.024L113.062 0H7.03125Z" fill="#FF4B00"/>
<path d="M93.1642 31.875H41.0625L42.3278 49.4531H91.899L88.875 92.0151L60.0469 101.648L31.2188 92.0151L30.2346 77.8125H44.2971L44.5781 81.6797L60.0469 86.8121L75.5156 81.6797L76.7809 63.5156H29.1799L25.9453 17.8125H94.1484L93.1642 31.875Z" fill="#ECECF1"/>
<path d="M91.899 49.4531L88.875 92.0151L60.0469 101.648V86.8121L75.5156 81.6797L76.7809 63.5156H60.0469V49.4531H91.899Z" fill="#E2E2E7"/>
<path d="M94.1484 17.8125L93.1642 31.875H60.0469V17.8125H94.1484Z" fill="#E2E2E7"/>
</svg>
