<svg width="23" height="25" viewBox="0 0 23 25" fill="none" xmlns="http://www.w3.org/2000/svg">
<path d="M11.5 0C7.10718 0 3.44336 3.53857 3.44336 8.05664C3.44336 9.77549 3.95986 11.3082 4.95112 12.7444L10.8834 22.0013C11.1712 22.4513 11.8293 22.4504 12.1166 22.0013L18.0746 12.7129C19.0445 11.3418 19.5566 9.73179 19.5566 8.05664C19.5566 3.61421 15.9424 0 11.5 0ZM11.5 11.7188C9.48081 11.7188 7.83789 10.0758 7.83789 8.05664C7.83789 6.03745 9.48081 4.39453 11.5 4.39453C13.5192 4.39453 15.1621 6.03745 15.1621 8.05664C15.1621 10.0758 13.5192 11.7188 11.5 11.7188Z" fill="white"/>
<path d="M17.2258 16.8308L13.5377 22.5968C12.5831 24.0852 10.4116 24.0803 9.46152 22.5982L5.76748 16.8323C2.51729 17.5838 0.513672 18.9604 0.513672 20.6055C0.513672 23.4601 6.17422 25 11.5 25C16.8258 25 22.4863 23.4601 22.4863 20.6055C22.4863 18.9592 20.4799 17.5819 17.2258 16.8308Z" fill="white"/>
</svg>
