<svg width="120" height="137" viewBox="0 0 120 137" fill="none" xmlns="http://www.w3.org/2000/svg">
<path fill-rule="evenodd" clip-rule="evenodd" d="M56.5883 1.18748C58.6992 -0.0312447 61.3 -0.0312447 63.4109 1.18748L116.589 31.8894C118.7 33.1082 120 35.3605 120 37.798V99.2018C120 101.64 118.7 103.892 116.589 105.11L63.4109 135.812C61.3 137.031 58.6992 137.031 56.5883 135.812L43.2942 128.137C40.031 126.253 38.913 122.08 40.797 118.817C42.681 115.554 46.8538 114.435 50.117 116.32L59.9996 122.026L106.355 95.2631V41.737L59.9996 14.9742L13.6453 41.737V95.5114L24.3338 102.5C24.3758 102.496 24.4183 102.492 24.4614 102.487C25.7993 102.353 27.4681 102.094 29.0431 101.622C30.6895 101.128 31.7524 100.542 32.3028 100.047C32.6578 99.7278 32.7093 99.5805 32.7093 99.2018V48.032C32.7093 44.264 35.7639 41.2093 39.532 41.2093C43.3 41.2093 46.3543 44.264 46.3543 48.032V99.2018C46.3543 103.94 44.274 107.63 41.4309 110.19C38.7831 112.573 35.5818 113.906 32.9639 114.691C30.2747 115.498 27.6792 115.878 25.8191 116.065C24.8724 116.159 24.0756 116.207 23.5001 116.232C23.2116 116.245 22.9763 116.251 22.803 116.254L22.59 116.258L22.5199 116.258H22.4943H22.4839C22.4818 116.258 22.4751 116.258 22.4751 109.436V116.258C21.1489 116.258 19.8514 115.872 18.7415 115.146L3.08902 104.912C1.16162 103.652 0 101.504 0 99.2018V37.798C0 35.3605 1.3004 33.1082 3.41132 31.8894L56.5883 1.18748ZM59.0438 46.6284C63.1558 43.2014 69.1242 41.2093 77.0562 41.2093C84.9889 41.2093 90.9574 43.2014 95.0694 46.6284C99.1336 50.0154 100.935 54.4717 100.935 58.2659C100.935 62.0341 97.881 65.0886 94.1128 65.0886C90.3454 65.0886 87.2902 62.0341 87.2902 58.2659C87.2902 58.3417 87.2943 58.3765 87.2922 58.3771C87.2834 58.3785 87.1783 57.8143 86.3344 57.1109C85.3294 56.2737 82.7695 54.8546 77.0562 54.8546C71.3436 54.8546 68.7838 56.2737 67.7788 57.1109C66.9717 57.7836 66.84 58.3287 66.823 58.3737C66.8264 60.0842 66.9157 60.2561 66.9512 60.3243C66.9526 60.3271 66.954 60.3291 66.9553 60.3318C66.958 60.3373 67.0392 60.5119 67.4111 60.8422C67.8156 61.2017 68.5586 61.74 69.874 62.3977C72.5178 63.7193 75.2196 64.4193 78.7114 65.2926L78.9338 65.3478C82.2251 66.17 86.2559 67.177 90.342 69.2204C95.5395 71.8191 98.2549 75.8342 99.5948 79.1848C100.251 80.8243 100.581 82.3021 100.75 83.3999C100.835 83.9532 100.881 84.4233 100.906 84.7876C100.919 84.9698 100.926 85.1267 100.931 85.2556L100.935 85.4276L100.935 85.4978V85.5285V85.5429C100.935 85.5463 100.935 85.5565 94.1128 85.5565L100.935 85.5429C100.935 89.3369 99.1336 93.8071 95.0694 97.1939C90.9574 100.621 84.9889 102.613 77.0562 102.613C69.1242 102.613 63.1558 100.621 59.0438 97.1939C54.9788 93.8071 53.177 89.3506 53.177 85.5565C53.177 81.7884 56.2322 78.7339 59.9996 78.7339C63.7678 78.7339 66.8223 81.7884 66.8223 85.5565C66.8223 85.4808 66.8189 85.446 66.8209 85.4453C66.8298 85.4439 66.9348 86.0082 67.7788 86.7116C68.7838 87.5487 71.3436 88.9678 77.0562 88.9678C82.7695 88.9678 85.3294 87.5487 86.3344 86.7116C87.0043 86.1528 87.209 85.682 87.2691 85.5128C87.267 85.5006 87.265 85.4876 87.2629 85.4746C87.2186 85.186 87.1224 84.7453 86.9259 84.2527C86.5602 83.3391 85.8636 82.2373 84.2391 81.4247C81.5953 80.1032 78.8936 79.4032 75.4017 78.5299L75.1786 78.4746C71.8881 77.6525 67.8573 76.6455 63.7712 74.6021C59.5875 72.5103 56.4928 69.9197 54.7503 66.434C53.162 63.2574 53.1715 60.1319 53.177 58.5116C53.177 58.4249 53.177 58.343 53.177 58.2659C53.177 54.4717 54.9788 50.0154 59.0438 46.6284Z" fill="#417E38"/>
</svg>
